<svg width="26" height="26" viewBox="0 0 26 26" fill="none" xmlns="http://www.w3.org/2000/svg">
<path fill-rule="evenodd" clip-rule="evenodd" d="M1.12988 12.4921C1.12988 7.71191 1.12988 5.32179 2.26897 3.60025C2.77763 2.8315 3.436 2.17314 4.20475 1.66448C5.92628 0.525391 8.3164 0.525391 13.0966 0.525391C17.8769 0.525391 20.267 0.525391 21.9885 1.66448C22.7573 2.17314 23.4156 2.8315 23.9243 3.60025C25.0634 5.32179 25.0634 7.71191 25.0634 12.4921C25.0634 17.2724 25.0634 19.6625 23.9243 21.384C23.4156 22.1528 22.7573 22.8112 21.9885 23.3198C20.267 24.4589 17.8769 24.4589 13.0966 24.4589C8.3164 24.4589 5.92628 24.4589 4.20475 23.3198C3.436 22.8112 2.77763 22.1528 2.26897 21.384C1.12988 19.6625 1.12988 17.2724 1.12988 12.4921ZM19.2918 12.4925C19.2918 15.914 16.518 18.6878 13.0964 18.6878C9.67484 18.6878 6.90109 15.914 6.90109 12.4925C6.90109 9.07086 9.67484 6.29712 13.0964 6.29712C16.518 6.29712 19.2918 9.07086 19.2918 12.4925ZM13.0964 16.5917C15.3604 16.5917 17.1957 14.7564 17.1957 12.4925C17.1957 10.2285 15.3604 8.39317 13.0964 8.39317C10.8325 8.39317 8.99714 10.2285 8.99714 12.4925C8.99714 14.7564 10.8325 16.5917 13.0964 16.5917ZM19.5365 7.44158C20.3404 7.44158 20.9922 6.78983 20.9922 5.98586C20.9922 5.18188 20.3404 4.53014 19.5365 4.53014C18.7325 4.53014 18.0807 5.18188 18.0807 5.98586C18.0807 6.78983 18.7325 7.44158 19.5365 7.44158Z" fill="white"/>
</svg>
