<svg width="150" height="23" viewBox="0 0 150 23" fill="none" xmlns="http://www.w3.org/2000/svg">
<g clip-path="url(#clip0_1_4043)">
<path d="M5.69976 6.2186C5.59512 5.78583 5.61991 5.32826 5.67773 5.0912C5.82367 4.4076 6.28901 3.64406 7.64098 3.64406C8.89658 3.64406 9.63452 4.42414 9.63452 5.59288V6.9215H14.9846V5.41371C14.9818 0.744247 10.7772 0 7.74561 0C3.93476 0 0.823298 1.26522 0.253323 4.77145C0.0963727 5.73346 0.0715912 6.5797 0.297379 7.66575C1.22531 12.0541 8.84701 13.3248 9.95668 16.1006C10.1632 16.616 10.1026 17.2803 9.99798 17.6855C9.82176 18.4077 9.33714 19.1354 7.90256 19.1354C6.5616 19.1354 5.76033 18.3553 5.76033 17.1811L5.75207 15.1165H0V16.7566C0 21.5556 3.76404 23 7.79518 23C11.8263 23 14.8524 21.6769 15.3701 18.0852C15.6289 16.2329 15.4334 15.0283 15.348 14.5707C14.4421 10.0666 6.31104 8.72975 5.69976 6.2186ZM75.4378 6.27097C75.3414 5.84648 75.369 5.39717 75.4185 5.16011C75.5727 4.47375 76.0326 3.72399 77.3625 3.72399C78.6016 3.72399 79.3258 4.49581 79.3258 5.65628V6.96836H84.6125V5.4716C84.6125 0.846237 80.4712 0.118528 77.4699 0.118528C73.6921 0.118528 70.6082 1.36445 70.0437 4.84588C69.895 5.7941 69.8565 6.63483 70.096 7.70709C71.0157 12.0458 78.5603 13.3055 79.6562 16.0509C79.8489 16.5719 79.7938 17.2335 79.6947 17.6249C79.5295 18.3388 79.0504 19.0582 77.6268 19.0582C76.2914 19.0582 75.4901 18.2892 75.4901 17.1315V15.0724H69.7986V16.7097C69.7986 21.4536 73.5104 22.887 77.5112 22.887C81.512 22.887 84.5051 21.5777 85.0117 18.0246C85.2541 16.1888 85.0723 14.9952 84.9732 14.5431C84.0866 10.0914 76.0436 8.75455 75.4351 6.26822L75.4378 6.27097ZM124.131 17.9667L119.081 0.683605H111.123V21.9277H116.388L116.082 4.0906L121.507 21.9277H129.139V0.683605H123.842L124.134 17.9667H124.131ZM22.9587 0.683605L18.9854 22.151H24.7788L27.7719 2.2796L30.6933 22.151H36.4454L32.4886 0.683605H22.956H22.9587ZM55.3482 0.683605L52.6415 17.465L49.9376 0.683605H41.1897L40.7271 22.151H46.0854L46.2314 2.2796L49.9183 22.151H55.3565L59.0462 2.2796L59.1921 22.151H64.5642L64.0851 0.683605H55.3482ZM105.178 0.683605H99.754V16.5636C99.7623 16.8393 99.754 17.1508 99.7072 17.3796C99.5943 17.9116 99.1427 18.9397 97.6476 18.9397C96.1524 18.9397 95.7064 17.9143 95.6017 17.3796C95.5467 17.1508 95.5412 16.8393 95.5467 16.5636V0.683605H90.125V16.0702C90.1195 16.4672 90.1498 17.2776 90.1718 17.4898C90.5463 21.5005 93.7018 22.8015 97.6448 22.8015C101.588 22.8015 104.749 21.5005 105.132 17.4898C105.162 17.2776 105.2 16.4672 105.178 16.0702V0.683605ZM142.414 10.0997V13.2311H144.611V16.3376C144.617 16.616 144.603 16.9137 144.556 17.1535C144.468 17.7324 143.92 18.7192 142.359 18.7192C140.798 18.7192 140.269 17.7324 140.175 17.1535C140.137 16.9137 140.12 16.6133 140.12 16.3376V6.52732C140.12 6.18001 140.145 5.79962 140.217 5.51294C140.324 4.98921 140.787 3.95829 142.348 3.95829C143.989 3.95829 144.397 5.04434 144.49 5.51294C144.551 5.82167 144.556 6.33988 144.556 6.33988V7.53068H149.956V6.82778C149.956 6.82778 149.981 6.0918 149.915 5.4082C149.51 1.38099 146.195 0.107502 142.395 0.107502C138.595 0.107502 135.34 1.39202 134.867 5.4082C134.823 5.77481 134.759 6.43636 134.759 6.82778V15.8525C134.759 16.2466 134.773 16.5499 134.845 17.2693C135.197 21.1862 138.587 22.5727 142.378 22.5727C146.17 22.5727 149.559 21.1835 149.92 17.2693C149.983 16.5499 149.992 16.2466 150 15.8525V10.0997H142.414Z" fill="#1E1E1E"/>
</g>
<defs>
<clipPath id="clip0_1_4043">
<rect width="150" height="23" fill="white"/>
</clipPath>
</defs>
</svg>
