<svg width="40" height="40" viewBox="0 0 40 40" fill="none" xmlns="http://www.w3.org/2000/svg">
<path d="M3.33301 3.33301H5.50995C5.91998 3.33301 6.12499 3.33301 6.28998 3.40841C6.43537 3.47485 6.55858 3.58172 6.64492 3.71625C6.7429 3.86891 6.77189 4.07187 6.82988 4.47778L7.61872 9.99967M7.61872 9.99967L9.37187 22.8853C9.59435 24.5205 9.70559 25.3382 10.0965 25.9536C10.441 26.4959 10.9348 26.9271 11.5186 27.1953C12.1811 27.4997 13.0062 27.4997 14.6565 27.4997H28.9197C30.4906 27.4997 31.276 27.4997 31.9179 27.217C32.4839 26.9678 32.9694 26.5661 33.3201 26.0567C33.7179 25.479 33.8649 24.7074 34.1588 23.1643L36.3649 11.5825C36.4683 11.0394 36.52 10.7678 36.4451 10.5555C36.3793 10.3693 36.2495 10.2125 36.0789 10.113C35.8844 9.99967 35.608 9.99967 35.0551 9.99967H7.61872ZM16.6663 34.9997C16.6663 35.9202 15.9201 36.6663 14.9997 36.6663C14.0792 36.6663 13.333 35.9202 13.333 34.9997C13.333 34.0792 14.0792 33.333 14.9997 33.333C15.9201 33.333 16.6663 34.0792 16.6663 34.9997ZM29.9997 34.9997C29.9997 35.9202 29.2535 36.6663 28.333 36.6663C27.4125 36.6663 26.6663 35.9202 26.6663 34.9997C26.6663 34.0792 27.4125 33.333 28.333 33.333C29.2535 33.333 29.9997 34.0792 29.9997 34.9997Z" stroke="#1E1E1E" stroke-width="1.5" stroke-linecap="round" stroke-linejoin="round"/>
</svg>
