<svg width="40" height="40" viewBox="0 0 40 40" fill="none" xmlns="http://www.w3.org/2000/svg">
<path d="M33.3337 35C33.3337 32.6741 33.3337 31.5111 33.0466 30.5648C32.4003 28.4341 30.7329 26.7667 28.6022 26.1204C27.6559 25.8333 26.4929 25.8333 24.167 25.8333H15.8337C13.5077 25.8333 12.3447 25.8333 11.3984 26.1204C9.26775 26.7667 7.60039 28.4341 6.95406 30.5648C6.66699 31.5111 6.66699 32.6741 6.66699 35M27.5003 12.5C27.5003 16.6421 24.1425 20 20.0003 20C15.8582 20 12.5003 16.6421 12.5003 12.5C12.5003 8.35786 15.8582 5 20.0003 5C24.1425 5 27.5003 8.35786 27.5003 12.5Z" stroke="#1E1E1E" stroke-width="1.5" stroke-linecap="round" stroke-linejoin="round"/>
</svg>
