<svg width="29" height="22" viewBox="0 0 29 22" fill="none" xmlns="http://www.w3.org/2000/svg">
<path d="M15.751 20.1923L10.2533 20.0896C8.47322 20.0537 6.68875 20.1252 4.94362 19.7543C2.28887 19.2001 2.1008 16.4826 1.904 14.2032C1.63284 10.9986 1.73781 7.73581 2.24954 4.55796C2.53843 2.77486 3.67531 1.71087 5.43346 1.59508C11.3685 1.17489 17.3431 1.22469 23.265 1.42072C23.8904 1.43869 24.5201 1.53692 25.1368 1.64872C28.181 2.19402 28.2552 5.27351 28.4526 7.86586C28.6494 10.485 28.5663 13.1175 28.1901 15.7188C27.8884 17.8725 27.311 19.6787 24.8744 19.8531C21.8215 20.081 18.8386 20.2646 15.7771 20.2062C15.7773 20.1923 15.7597 20.1923 15.751 20.1923ZM12.5188 14.7396C14.8195 13.3897 17.0762 12.0623 19.3636 10.7215C17.0587 9.37158 14.8063 8.0442 12.5188 6.70337V14.7396Z" fill="white"/>
</svg>
